<mxfile host="app.diagrams.net" agent="Mozilla/5.0 (Macintosh; Intel Mac OS X 10_15_7) AppleWebKit/537.36 (KHTML, like Gecko) Chrome/141.0.0.0 Safari/537.36" version="28.2.7">
  <diagram name="Page-1" id="LViigTEO0sgzR07wJAX4">
    <mxGraphModel dx="1228" dy="1120" grid="1" gridSize="10" guides="1" tooltips="1" connect="1" arrows="1" fold="1" page="1" pageScale="1" pageWidth="850" pageHeight="1100" math="0" shadow="0">
      <root>
        <mxCell id="0" />
        <mxCell id="1" parent="0" />
        <mxCell id="7GmBC2OjULJTVXwjfjG8-3" value="" style="group" vertex="1" connectable="0" parent="1">
          <mxGeometry x="353" y="420" width="145" height="145" as="geometry" />
        </mxCell>
        <mxCell id="7GmBC2OjULJTVXwjfjG8-1" value="&lt;font style=&quot;color: light-dark(rgb(0, 0, 0), rgb(0, 0, 0));&quot;&gt;&lt;b&gt;Civic Insight Initiative Web App&lt;/b&gt;&lt;/font&gt;" style="ellipse;whiteSpace=wrap;html=1;aspect=fixed;fillColor=#fa6800;fontColor=#000000;strokeColor=#C73500;" vertex="1" parent="7GmBC2OjULJTVXwjfjG8-3">
          <mxGeometry width="145" height="145" as="geometry" />
        </mxCell>
        <mxCell id="7GmBC2OjULJTVXwjfjG8-5" value="End User" style="rounded=0;whiteSpace=wrap;html=1;fillColor=#6d8764;fontColor=#ffffff;strokeColor=#3A5431;fontStyle=1;fontSize=14;" vertex="1" parent="1">
          <mxGeometry x="363" y="160" width="125" height="60" as="geometry" />
        </mxCell>
        <mxCell id="7GmBC2OjULJTVXwjfjG8-6" value="PythonAnywhere&lt;div&gt;Web Host&lt;/div&gt;" style="rounded=0;whiteSpace=wrap;html=1;fontStyle=1;fontSize=14;fillColor=#6d8764;fontColor=#ffffff;strokeColor=#3A5431;" vertex="1" parent="1">
          <mxGeometry x="585" y="630" width="130" height="60" as="geometry" />
        </mxCell>
        <mxCell id="7GmBC2OjULJTVXwjfjG8-7" value="Developers" style="rounded=0;whiteSpace=wrap;html=1;fillColor=#6d8764;fontColor=#ffffff;strokeColor=#3A5431;fontStyle=1;fontSize=14;" vertex="1" parent="1">
          <mxGeometry x="170" y="620" width="120" height="60" as="geometry" />
        </mxCell>
        <mxCell id="7GmBC2OjULJTVXwjfjG8-8" value="SSD Institute&lt;div&gt;Staff/Admin&lt;/div&gt;" style="rounded=0;whiteSpace=wrap;html=1;fillColor=#6d8764;fontColor=#ffffff;strokeColor=#3A5431;fontStyle=1;fontSize=14;" vertex="1" parent="1">
          <mxGeometry x="690" y="340" width="120" height="60" as="geometry" />
        </mxCell>
        <mxCell id="7GmBC2OjULJTVXwjfjG8-9" value="&lt;font style=&quot;color: light-dark(rgb(0, 0, 0), rgb(0, 0, 0));&quot;&gt;&lt;b&gt;Public Sources&lt;/b&gt;&lt;/font&gt;&lt;div&gt;&lt;font style=&quot;color: light-dark(rgb(0, 0, 0), rgb(0, 0, 0));&quot;&gt;&lt;b&gt;(Governments/Courts)&lt;/b&gt;&lt;/font&gt;&lt;/div&gt;" style="rounded=0;whiteSpace=wrap;html=1;fillColor=#6d8764;fontColor=#ffffff;strokeColor=#3A5431;" vertex="1" parent="1">
          <mxGeometry x="90" y="320" width="140" height="70" as="geometry" />
        </mxCell>
        <mxCell id="7GmBC2OjULJTVXwjfjG8-10" value="" style="endArrow=classic;html=1;rounded=0;exitX=1;exitY=1;exitDx=0;exitDy=0;entryX=0.04;entryY=0.326;entryDx=0;entryDy=0;entryPerimeter=0;" edge="1" parent="1" source="7GmBC2OjULJTVXwjfjG8-9" target="7GmBC2OjULJTVXwjfjG8-1">
          <mxGeometry width="50" height="50" relative="1" as="geometry">
            <mxPoint x="400" y="600" as="sourcePoint" />
            <mxPoint x="370" y="440" as="targetPoint" />
            <Array as="points" />
          </mxGeometry>
        </mxCell>
        <mxCell id="7GmBC2OjULJTVXwjfjG8-12" value="Government, Court, and Public Records (json)" style="text;html=1;whiteSpace=wrap;strokeColor=none;fillColor=none;align=center;verticalAlign=middle;rounded=0;" vertex="1" parent="1">
          <mxGeometry x="140" y="430" width="160" height="30" as="geometry" />
        </mxCell>
        <mxCell id="7GmBC2OjULJTVXwjfjG8-13" value="" style="endArrow=classic;html=1;rounded=0;exitX=0.25;exitY=1;exitDx=0;exitDy=0;entryX=0.285;entryY=0.05;entryDx=0;entryDy=0;entryPerimeter=0;" edge="1" parent="1" source="7GmBC2OjULJTVXwjfjG8-5" target="7GmBC2OjULJTVXwjfjG8-1">
          <mxGeometry width="50" height="50" relative="1" as="geometry">
            <mxPoint x="350" y="380" as="sourcePoint" />
            <mxPoint x="400" y="330" as="targetPoint" />
          </mxGeometry>
        </mxCell>
        <mxCell id="7GmBC2OjULJTVXwjfjG8-14" value="" style="endArrow=classic;html=1;rounded=0;entryX=0.776;entryY=1;entryDx=0;entryDy=0;entryPerimeter=0;exitX=0.734;exitY=0.065;exitDx=0;exitDy=0;exitPerimeter=0;" edge="1" parent="1" source="7GmBC2OjULJTVXwjfjG8-1" target="7GmBC2OjULJTVXwjfjG8-5">
          <mxGeometry width="50" height="50" relative="1" as="geometry">
            <mxPoint x="350" y="440" as="sourcePoint" />
            <mxPoint x="400" y="390" as="targetPoint" />
          </mxGeometry>
        </mxCell>
        <mxCell id="7GmBC2OjULJTVXwjfjG8-15" value="Query Request" style="text;html=1;whiteSpace=wrap;strokeColor=none;fillColor=none;align=center;verticalAlign=middle;rounded=0;" vertex="1" parent="1">
          <mxGeometry x="330" y="290" width="60" height="30" as="geometry" />
        </mxCell>
        <mxCell id="7GmBC2OjULJTVXwjfjG8-16" value="HTML/JSON Response" style="text;html=1;whiteSpace=wrap;strokeColor=none;fillColor=none;align=center;verticalAlign=middle;rounded=0;" vertex="1" parent="1">
          <mxGeometry x="460" y="290" width="80" height="30" as="geometry" />
        </mxCell>
        <mxCell id="7GmBC2OjULJTVXwjfjG8-17" value="" style="endArrow=classic;html=1;rounded=0;exitX=0;exitY=0.5;exitDx=0;exitDy=0;entryX=1.011;entryY=0.12;entryDx=0;entryDy=0;entryPerimeter=0;" edge="1" parent="1" source="7GmBC2OjULJTVXwjfjG8-8">
          <mxGeometry width="50" height="50" relative="1" as="geometry">
            <mxPoint x="430" y="430" as="sourcePoint" />
            <mxPoint x="491.92999999999995" y="458.29999999999995" as="targetPoint" />
          </mxGeometry>
        </mxCell>
        <mxCell id="7GmBC2OjULJTVXwjfjG8-18" value="" style="endArrow=classic;html=1;rounded=0;entryX=0.186;entryY=1.03;entryDx=0;entryDy=0;entryPerimeter=0;exitX=1;exitY=0.5;exitDx=0;exitDy=0;" edge="1" parent="1" source="7GmBC2OjULJTVXwjfjG8-1" target="7GmBC2OjULJTVXwjfjG8-8">
          <mxGeometry width="50" height="50" relative="1" as="geometry">
            <mxPoint x="430" y="390" as="sourcePoint" />
            <mxPoint x="480" y="340" as="targetPoint" />
          </mxGeometry>
        </mxCell>
        <mxCell id="7GmBC2OjULJTVXwjfjG8-19" value="Web App Updates" style="text;html=1;whiteSpace=wrap;strokeColor=none;fillColor=none;align=center;verticalAlign=middle;rounded=0;" vertex="1" parent="1">
          <mxGeometry x="550" y="370" width="60" height="30" as="geometry" />
        </mxCell>
        <mxCell id="7GmBC2OjULJTVXwjfjG8-20" value="Utilization, Feedback, and Error Reports" style="text;html=1;whiteSpace=wrap;strokeColor=none;fillColor=none;align=center;verticalAlign=middle;rounded=0;" vertex="1" parent="1">
          <mxGeometry x="580" y="460" width="140" height="20" as="geometry" />
        </mxCell>
        <mxCell id="7GmBC2OjULJTVXwjfjG8-21" value="" style="endArrow=classic;html=1;rounded=0;exitX=0.75;exitY=0;exitDx=0;exitDy=0;" edge="1" parent="1" source="7GmBC2OjULJTVXwjfjG8-7">
          <mxGeometry width="50" height="50" relative="1" as="geometry">
            <mxPoint x="313" y="580" as="sourcePoint" />
            <mxPoint x="363" y="530" as="targetPoint" />
          </mxGeometry>
        </mxCell>
        <mxCell id="7GmBC2OjULJTVXwjfjG8-22" value="" style="endArrow=classic;html=1;rounded=0;entryX=1;entryY=0.25;entryDx=0;entryDy=0;exitX=0.208;exitY=0.91;exitDx=0;exitDy=0;exitPerimeter=0;" edge="1" parent="1" source="7GmBC2OjULJTVXwjfjG8-1" target="7GmBC2OjULJTVXwjfjG8-7">
          <mxGeometry width="50" height="50" relative="1" as="geometry">
            <mxPoint x="330" y="510" as="sourcePoint" />
            <mxPoint x="380" y="460" as="targetPoint" />
          </mxGeometry>
        </mxCell>
        <mxCell id="7GmBC2OjULJTVXwjfjG8-23" value="Code and System Update" style="text;html=1;whiteSpace=wrap;strokeColor=none;fillColor=none;align=center;verticalAlign=middle;rounded=0;" vertex="1" parent="1">
          <mxGeometry x="230" y="535" width="90" height="30" as="geometry" />
        </mxCell>
        <mxCell id="7GmBC2OjULJTVXwjfjG8-24" value="Error Logs Test Results" style="text;html=1;whiteSpace=wrap;strokeColor=none;fillColor=none;align=center;verticalAlign=middle;rounded=0;" vertex="1" parent="1">
          <mxGeometry x="320" y="610" width="70" height="30" as="geometry" />
        </mxCell>
        <mxCell id="7GmBC2OjULJTVXwjfjG8-26" value="" style="endArrow=classic;html=1;rounded=0;exitX=0.136;exitY=-0.032;exitDx=0;exitDy=0;entryX=0.903;entryY=0.799;entryDx=0;entryDy=0;exitPerimeter=0;entryPerimeter=0;" edge="1" parent="1" source="7GmBC2OjULJTVXwjfjG8-6" target="7GmBC2OjULJTVXwjfjG8-1">
          <mxGeometry width="50" height="50" relative="1" as="geometry">
            <mxPoint x="500" y="640" as="sourcePoint" />
            <mxPoint x="500" y="570" as="targetPoint" />
          </mxGeometry>
        </mxCell>
        <mxCell id="7GmBC2OjULJTVXwjfjG8-27" value="Hosting Environment" style="text;html=1;whiteSpace=wrap;strokeColor=none;fillColor=none;align=center;verticalAlign=middle;rounded=0;" vertex="1" parent="1">
          <mxGeometry x="550" y="550" width="60" height="30" as="geometry" />
        </mxCell>
        <mxCell id="7GmBC2OjULJTVXwjfjG8-28" value="" style="endArrow=classic;html=1;rounded=0;entryX=0;entryY=0.25;entryDx=0;entryDy=0;" edge="1" parent="1" target="7GmBC2OjULJTVXwjfjG8-6">
          <mxGeometry width="50" height="50" relative="1" as="geometry">
            <mxPoint x="470" y="550" as="sourcePoint" />
            <mxPoint x="620" y="460" as="targetPoint" />
          </mxGeometry>
        </mxCell>
        <mxCell id="7GmBC2OjULJTVXwjfjG8-29" value="Deployment Package" style="text;html=1;whiteSpace=wrap;strokeColor=none;fillColor=none;align=center;verticalAlign=middle;rounded=0;" vertex="1" parent="1">
          <mxGeometry x="470" y="610" width="60" height="30" as="geometry" />
        </mxCell>
      </root>
    </mxGraphModel>
  </diagram>
</mxfile>
